<svg xmlns="http://www.w3.org/2000/svg" width="475.092" height="475.092">
  <g fill="#fff" stroke="#fff">
    <path d="M273.372 302.498c-5.04-6.762-10.608-13.045-16.7-18.842-6.09-5.804-12.183-11.088-18.27-15.845-6.093-4.755-11.66-9.327-16.703-13.707-5.044-4.374-9.137-8.945-12.277-13.702-3.14-4.756-4.71-9.61-4.71-14.557 0-6.855 2.19-13.278 6.566-19.274 4.376-5.997 9.706-11.8 15.985-17.418 6.28-5.616 12.56-11.752 18.844-18.414 6.275-6.665 11.603-15.465 15.984-26.412 4.373-10.944 6.563-23.458 6.563-37.542 0-16.75-3.713-32.835-11.136-48.25-7.422-15.418-17.89-27.412-31.404-35.976h38.54L303.2 0H178.44c-17.698 0-35.497 1.906-53.383 5.72-26.453 5.9-48.723 19.368-66.806 40.397-18.08 21.033-27.12 44.873-27.12 71.52 0 28.17 10.138 51.583 30.406 70.233 20.27 18.65 44.585 27.978 72.945 27.978 5.71 0 12.37-.478 19.986-1.427-.38 1.523-1.043 3.57-1.997 6.138s-1.716 4.62-2.287 6.14c-.57 1.52-1.047 3.375-1.425 5.566-.382 2.19-.57 4.428-.57 6.71 0 12.563 6.085 26.744 18.27 42.54-14.465.388-28.737 1.67-42.825 3.86-14.084 2.19-28.833 5.617-44.252 10.28-15.416 4.662-29.216 11.42-41.395 20.27-12.182 8.855-21.317 19.367-27.408 31.55C3.533 361.56.01 374.404.01 386.017c0 12.75 2.857 24.314 8.565 34.69 5.708 10.37 13.035 18.842 21.982 25.406 8.945 6.57 19.273 12.083 30.978 16.562 11.704 4.47 23.315 7.66 34.83 9.562 11.515 1.903 22.887 2.854 34.118 2.854 51.007 0 90.98-12.462 119.91-37.395 26.647-23.223 39.97-50.062 39.97-80.517 0-10.855-1.57-20.984-4.712-30.41-3.14-9.43-7.23-17.513-12.277-24.27zm-110.06-103.776c-9.708 0-18.938-2.475-27.695-7.426-8.757-4.95-16.18-11.374-22.27-19.273-6.088-7.898-11.418-16.796-15.987-26.695-4.567-9.896-7.944-19.792-10.135-29.692-2.19-9.895-3.284-19.318-3.284-28.265 0-18.27 4.856-33.972 14.564-47.106 9.705-13.134 23.41-19.7 41.112-19.7 12.563 0 23.935 3.898 34.118 11.703 10.183 7.804 18.177 17.7 23.984 29.692 5.802 11.99 10.277 24.406 13.417 37.256 3.14 12.847 4.71 24.983 4.71 36.403 0 19.035-4.138 34.316-12.418 45.832-8.282 11.514-21.65 17.272-40.115 17.272zm78.94 214.4c-5.23 8.95-12.32 15.94-21.268 20.982-8.946 5.048-18.51 8.758-28.693 11.14-10.18 2.385-20.887 3.572-32.12 3.572-12.18 0-24.27-1.43-36.256-4.284-11.99-2.85-23.46-7.187-34.403-12.99-10.943-5.8-19.794-13.8-26.55-23.983-6.757-10.186-10.135-21.746-10.135-34.69 0-11.42 2.568-21.603 7.708-30.55 5.142-8.947 11.71-16.086 19.702-21.41 7.994-5.33 17.32-9.713 27.98-13.13 10.66-3.434 20.936-5.81 30.832-7.14 9.895-1.335 19.985-1.995 30.262-1.995 6.282 0 11.042.19 14.276.567 1.143.767 4.043 2.76 8.708 5.996s7.804 5.427 9.423 6.57c1.615 1.136 4.567 3.325 8.85 6.562 4.28 3.237 7.327 5.66 9.135 7.28 1.804 1.617 4.422 4.044 7.85 7.278 3.424 3.237 5.948 6.043 7.566 8.422 1.615 2.378 3.616 5.28 5.996 8.702 2.38 3.433 4.043 6.715 4.998 9.855.948 3.14 1.854 6.566 2.707 10.276.854 3.72 1.282 7.57 1.282 11.57.005 11.987-2.613 22.456-7.85 31.397z"/>
    <path d="M401.998 73.09V0h-36.55v73.09h-73.09v36.546h73.09v73.09H402v-73.09h73.083V73.09z"/>
  </g>
</svg>
